<?xml version="1.0" encoding="UTF-8"?>
<svg xmlns="http://www.w3.org/2000/svg" xmlns:xlink="http://www.w3.org/1999/xlink" viewBox="0 0 3611.32 3400">
  <defs>
    <linearGradient id="fg-1" x1="233.69" y1="2497.44" x2="3377.63" y2="2497.44" gradientUnits="userSpaceOnUse">
      <stop offset="0" stop-color="#71aaf0"/>
      <stop offset=".18" stop-color="#96d8d4"/>
      <stop offset=".41" stop-color="#f5e98a"/>
      <stop offset=".6" stop-color="#fca97b"/>
      <stop offset=".85" stop-color="#f57983"/>
      <stop offset="1" stop-color="#b162be"/>
    </linearGradient>
    <linearGradient id="fg-2" x1="0" y1="1006.26" x2="3611.32" y2="1006.26" xlink:href="#fg-1"/>
    <linearGradient id="fg-3" x1="630.68" y1="2618.31" x2="2571.87" y2="2618.31" gradientUnits="userSpaceOnUse">
      <stop offset="0" stop-color="#f9947e"/>
      <stop offset=".43" stop-color="#f7927d"/>
      <stop offset=".61" stop-color="#f48a7c"/>
      <stop offset=".74" stop-color="#ed7e7b"/>
      <stop offset=".84" stop-color="#e46d78"/>
      <stop offset=".93" stop-color="#d85675"/>
      <stop offset="1" stop-color="#cd4173"/>
    </linearGradient>
    <linearGradient id="fg-4" x1="1885.88" y1="2394.19" x2="2618.76" y2="2394.19" xlink:href="#fg-3"/>
    <linearGradient id="fg-5" x1="1079.53" y1="2291.83" x2="2165.66" y2="2291.83" gradientUnits="userSpaceOnUse">
      <stop offset="0" stop-color="#77b1ec"/>
      <stop offset=".14" stop-color="#7fb8e5"/>
      <stop offset=".69" stop-color="#9cd1ce"/>
      <stop offset="1" stop-color="#a8dbc6"/>
    </linearGradient>
    <linearGradient id="fg-6" x1="930.47" y1="2476.02" x2="2007.18" y2="2476.02" gradientUnits="userSpaceOnUse">
      <stop offset="0" stop-color="#77b1ec"/>
      <stop offset=".35" stop-color="#79b3e9"/>
      <stop offset=".6" stop-color="#82bbe2"/>
      <stop offset=".81" stop-color="#92c8d6"/>
      <stop offset="1" stop-color="#a8dbc6"/>
    </linearGradient>
    <linearGradient id="fg-7" x1="1776.56" y1="1417.01" x2="1330.37" y2="1417.01" gradientUnits="userSpaceOnUse">
      <stop offset="0" stop-color="#ede29f"/>
      <stop offset=".13" stop-color="#cdd7af"/>
      <stop offset=".32" stop-color="#a5cbc3"/>
      <stop offset=".5" stop-color="#86c1d3"/>
      <stop offset=".68" stop-color="#6fbade"/>
      <stop offset=".85" stop-color="#62b6e5"/>
      <stop offset="1" stop-color="#5eb5e8"/>
    </linearGradient>
    <linearGradient id="fg-8" x1="2375.6" y1="1630.18" x2="1929.42" y2="1630.18" gradientUnits="userSpaceOnUse">
      <stop offset="0" stop-color="#f6576b"/>
      <stop offset=".22" stop-color="#f7666b"/>
      <stop offset=".64" stop-color="#fb8f6d"/>
      <stop offset="1" stop-color="#ffb870"/>
    </linearGradient>
  </defs>
  <g>
    <path fill="url(#fg-1)" d="M3377.63,2010.52v1118.77c0,112.46-92,206.9-204.45,207.97-3.42.03-6.81-.02-10.17-.14-2.67.1-5.35.15-8.06.15H456.37c-2.68,0-5.34-.05-7.98-.15h-.07c-2.67.1-5.35.15-8.06.15-114.08,0-206.57-92.48-206.57-206.57v-1119.95c43.5-5.73,85.53-25.31,118.95-58.72l294.18-294.18v1151.82c0,63.23,51.25,114.47,114.47,114.47h2088.74c63.22,0,114.47-51.25,114.47-114.47v-1152.06l294.19,294.19c33.41,33.42,75.44,53,118.94,58.72Z"/>
    <path fill="url(#fg-2)" d="M3550.82,1951.8c-47.25,47.25-111.69,66.82-173.19,58.72-43.5-5.73-85.53-25.3-118.94-58.72l-294.19-294.19L1914.5,607.61c-60.05-60.05-157.4-60.05-217.45,0L646.82,1657.84l-294.18,294.18c-33.42,33.41-75.45,53-118.95,58.72-61.5,8.1-125.94-11.48-173.19-58.72-80.67-80.67-80.67-211.46,0-292.13l173.19-173.19v-606.62c0-114.1,91.87-207.77,205.97-208.1,57.28-.16,109.15,22.99,146.66,60.5,37.38,37.39,60.5,89.03,60.5,146.07v195.02L1652.29,68.11c2.34-2.59,4.75-5.12,7.24-7.61C1699.86,20.17,1752.73,0,1805.59,0s105.73,20.17,146.06,60.5l1599.16,1599.17c80.67,80.67,80.67,211.46,0,292.13Z"/>
    <path fill="url(#fg-3)" d="M2161.05,2787.38c1.58.35,3.11.69,4.61,1.01-53.83,9.12-106.73,15.04-158.48,17.98-14.46,25.13-40.88,67.88-79.63,117.77-103.68,133.55-295.55,318.29-582,353.28-178.1,21.76-325.98-22.55-415.09-59.33-79.97,39.96-178.55,79.96-299.79,119.19h954.93c188.36-50.2,380.12-133.75,556.86-267.5,41.5-31.4,106.84-80.85,175.99-145.64,94.41-88.46,195.91-205.5,253.41-344.2-91.5,96.4-234.3,172.89-410.82,207.44ZM2425.06,1941.92c-164.23-91.99-350.75-8.06-376.78,4.13-13.93-13.27-28.01-26.07-42.21-38.38-48.1,32.71-98.36,70.92-149.05,115.47-29.53,25.95-56.79,51.94-81.92,77.55,27.19,26.1,43.57,51.35,47.3,57.29,82.44-63.77,190.03-77.51,277.63-35.53,85.3,40.88,134.7,126.49,140.47,200.78,1.74,22.31-.35,45.1-6,67.8,20.47-22.82,40.78-46.65,60.84-71.52,90.32-112,156.69-221.87,205.56-318.52-21.18-22.35-46.22-42.5-75.83-59.09Z"/>
    <path fill="url(#fg-4)" d="M2571.87,2579.94c-91.5,96.4-234.3,172.89-410.82,207.44-53.37-11.77-155.22-37.92-275.17-95.31,127.34-84.61,274.14-204.74,409.46-372.55,90.32-112,156.68-221.87,205.56-318.52,109.65,115.65,115.95,290.12,117.51,333.39,3.16,87.56-15.12,169.78-46.54,245.54Z"/>
    <path fill="url(#fg-5)" d="M2165.66,2788.39c-472.19,80.04-872.77-87.05-1052.98-337.51-7.31-28.25-13.7-58.93-18.74-92.52-6.77-45.08-60.7-404.19,95.7-583.28,25.05,140.64,92.1,377.71,282.73,600.63,260.64,304.78,586.83,389.63,693.29,412.68Z"/>
    <path fill="url(#fg-6)" d="M2007.18,2806.37c-53.15,92.38-268.16,422.99-661.62,471.05-178.1,21.76-325.98-22.55-415.09-59.33,239.24-119.51,311.91-238.57,326.25-335.04,21.25-142.88-88.29-216.85-144.04-432.16,159.67,221.91,492.31,378.37,894.5,355.49ZM1235.24,1732.87c-16.89,12.5-32.03,26.67-45.59,42.21,21.6,121.26,74.42,314.21,210.76,507.96-.83-10.99-.64-21.85.6-32.51,10.94-93.53,108.27-218.69,231.35-215.66,61.25,1.5,109.89,34.28,142.74,65.82,25.13-25.61,52.38-51.6,81.92-77.55,50.69-44.55,100.95-82.76,149.05-115.47-278.15-241.35-601.62-300.01-770.83-174.8Z"/>
    <circle fill="url(#fg-7)" cx="1553.47" cy="1417.01" r="223.09"/>
    <circle fill="url(#fg-8)" cx="2152.51" cy="1630.18" r="223.09"/>
  </g>
</svg>
