<?xml version="1.0" encoding="UTF-8"?>
<svg id="Layer_2" data-name="Layer 2" xmlns="http://www.w3.org/2000/svg" xmlns:xlink="http://www.w3.org/1999/xlink" viewBox="0 0 3611.32 4212.51">
  <defs>
    <style>
      .cls-1 {
        fill: url(#linear-gradient-2);
      }

      .cls-2 {
        fill: url(#linear-gradient-10);
      }

      .cls-3 {
        fill: url(#linear-gradient-4);
      }

      .cls-4 {
        fill: url(#linear-gradient-3);
      }

      .cls-5 {
        fill: url(#linear-gradient-5);
      }

      .cls-6 {
        fill: url(#linear-gradient-8);
      }

      .cls-7 {
        fill: url(#linear-gradient-7);
      }

      .cls-8 {
        fill: url(#linear-gradient-9);
      }

      .cls-9 {
        fill: url(#linear-gradient-6);
      }

      .cls-10 {
        fill: url(#linear-gradient);
      }
    </style>
    <linearGradient id="linear-gradient" x1="233.69" y1="2497.44" x2="3377.63" y2="2497.44" gradientUnits="userSpaceOnUse">
      <stop offset="0" stop-color="#71aaf0"/>
      <stop offset=".18" stop-color="#96d8d4"/>
      <stop offset=".41" stop-color="#f5e98a"/>
      <stop offset=".6" stop-color="#fca97b"/>
      <stop offset=".85" stop-color="#f57983"/>
      <stop offset="1" stop-color="#b162be"/>
    </linearGradient>
    <linearGradient id="linear-gradient-2" x1="0" y1="1006.26" x2="3611.32" y2="1006.26" xlink:href="#linear-gradient"/>
    <linearGradient id="linear-gradient-3" x1="630.68" y1="2618.31" x2="2571.87" y2="2618.31" gradientUnits="userSpaceOnUse">
      <stop offset="0" stop-color="#f9947e"/>
      <stop offset=".43" stop-color="#f7927d"/>
      <stop offset=".61" stop-color="#f48a7c"/>
      <stop offset=".74" stop-color="#ed7e7b"/>
      <stop offset=".84" stop-color="#e46d78"/>
      <stop offset=".93" stop-color="#d85675"/>
      <stop offset="1" stop-color="#cd4173"/>
    </linearGradient>
    <linearGradient id="linear-gradient-4" x1="1885.88" y1="2394.19" x2="2618.76" y2="2394.19" xlink:href="#linear-gradient-3"/>
    <linearGradient id="linear-gradient-5" x1="1079.53" y1="2291.83" x2="2165.66" y2="2291.83" gradientUnits="userSpaceOnUse">
      <stop offset="0" stop-color="#77b1ec"/>
      <stop offset=".14" stop-color="#7fb8e5"/>
      <stop offset=".69" stop-color="#9cd1ce"/>
      <stop offset="1" stop-color="#a8dbc6"/>
    </linearGradient>
    <linearGradient id="linear-gradient-6" x1="930.47" y1="2476.02" x2="2007.18" y2="2476.02" gradientUnits="userSpaceOnUse">
      <stop offset="0" stop-color="#77b1ec"/>
      <stop offset=".35" stop-color="#79b3e9"/>
      <stop offset=".6" stop-color="#82bbe2"/>
      <stop offset=".81" stop-color="#92c8d6"/>
      <stop offset="1" stop-color="#a8dbc6"/>
    </linearGradient>
    <linearGradient id="linear-gradient-7" x1="1776.56" y1="1417.01" x2="1330.37" y2="1417.01" gradientUnits="userSpaceOnUse">
      <stop offset="0" stop-color="#ede29f"/>
      <stop offset=".13" stop-color="#cdd7af"/>
      <stop offset=".32" stop-color="#a5cbc3"/>
      <stop offset=".5" stop-color="#86c1d3"/>
      <stop offset=".68" stop-color="#6fbade"/>
      <stop offset=".85" stop-color="#62b6e5"/>
      <stop offset="1" stop-color="#5eb5e8"/>
    </linearGradient>
    <linearGradient id="linear-gradient-8" x1="2375.6" y1="1630.18" x2="1929.42" y2="1630.18" gradientUnits="userSpaceOnUse">
      <stop offset="0" stop-color="#f6576b"/>
      <stop offset=".22" stop-color="#f7666b"/>
      <stop offset=".64" stop-color="#fb8f6d"/>
      <stop offset="1" stop-color="#ffb870"/>
    </linearGradient>
    <linearGradient id="linear-gradient-9" x1="1805.38" y1="3498.17" x2="1805.38" y2="3931.44" gradientUnits="userSpaceOnUse">
      <stop offset="0" stop-color="#77b1ec"/>
      <stop offset=".54" stop-color="#75afea"/>
      <stop offset=".74" stop-color="#70a8e5"/>
      <stop offset=".87" stop-color="#689cdc"/>
      <stop offset=".99" stop-color="#5d8bd0"/>
      <stop offset="1" stop-color="#5b89ce"/>
    </linearGradient>
    <linearGradient id="linear-gradient-10" x1="1805.66" y1="4001.93" x2="1805.66" y2="4212.51" xlink:href="#linear-gradient-3"/>
  </defs>
  <g id="Layer_1-2" data-name="Layer 1">
    <g>
      <path class="cls-10" d="M3377.63,2010.52v1118.77c0,112.46-92,206.9-204.45,207.97-3.42.03-6.81-.02-10.17-.14-2.67.1-5.35.15-8.06.15H456.37c-2.68,0-5.34-.05-7.98-.15h-.07c-2.67.1-5.35.15-8.06.15-114.08,0-206.57-92.48-206.57-206.57v-1119.95c43.5-5.73,85.53-25.31,118.95-58.72l294.18-294.18v1151.82c0,63.23,51.25,114.47,114.47,114.47h2088.74c63.22,0,114.47-51.25,114.47-114.47v-1152.06l294.19,294.19c33.41,33.42,75.44,53,118.94,58.72Z"/>
      <path class="cls-1" d="M3550.82,1951.8c-47.25,47.25-111.69,66.82-173.19,58.72-43.5-5.73-85.53-25.3-118.94-58.72l-294.19-294.19L1914.5,607.61c-60.05-60.05-157.4-60.05-217.45,0L646.82,1657.84l-294.18,294.18c-33.42,33.41-75.45,53-118.95,58.72-61.5,8.1-125.94-11.48-173.19-58.72-80.67-80.67-80.67-211.46,0-292.13l173.19-173.19v-606.62c0-114.1,91.87-207.77,205.97-208.1,57.28-.16,109.15,22.99,146.66,60.5,37.38,37.39,60.5,89.03,60.5,146.07v195.02L1652.29,68.11c2.34-2.59,4.75-5.12,7.24-7.61C1699.86,20.17,1752.73,0,1805.59,0s105.73,20.17,146.06,60.5l1599.16,1599.17c80.67,80.67,80.67,211.46,0,292.13Z"/>
      <path class="cls-4" d="M2161.05,2787.38c1.58.35,3.11.69,4.61,1.01-53.83,9.12-106.73,15.04-158.48,17.98-14.46,25.13-40.88,67.88-79.63,117.77-103.68,133.55-295.55,318.29-582,353.28-178.1,21.76-325.98-22.55-415.09-59.33-79.97,39.96-178.55,79.96-299.79,119.19h954.93c188.36-50.2,380.12-133.75,556.86-267.5,41.5-31.4,106.84-80.85,175.99-145.64,94.41-88.46,195.91-205.5,253.41-344.2-91.5,96.4-234.3,172.89-410.82,207.44ZM2425.06,1941.92c-164.23-91.99-350.75-8.06-376.78,4.13-13.93-13.27-28.01-26.07-42.21-38.38-48.1,32.71-98.36,70.92-149.05,115.47-29.53,25.95-56.79,51.94-81.92,77.55,27.19,26.1,43.57,51.35,47.3,57.29,82.44-63.77,190.03-77.51,277.63-35.53,85.3,40.88,134.7,126.49,140.47,200.78,1.74,22.31-.35,45.1-6,67.8,20.47-22.82,40.78-46.65,60.84-71.52,90.32-112,156.69-221.87,205.56-318.52-21.18-22.35-46.22-42.5-75.83-59.09Z"/>
      <path class="cls-3" d="M2571.87,2579.94c-91.5,96.4-234.3,172.89-410.82,207.44-53.37-11.77-155.22-37.92-275.17-95.31,127.34-84.61,274.14-204.74,409.46-372.55,90.32-112,156.68-221.87,205.56-318.52,109.65,115.65,115.95,290.12,117.51,333.39,3.16,87.56-15.12,169.78-46.54,245.54Z"/>
      <path class="cls-5" d="M2165.66,2788.39c-472.19,80.04-872.77-87.05-1052.98-337.51-7.31-28.25-13.7-58.93-18.74-92.52-6.77-45.08-60.7-404.19,95.7-583.28,25.05,140.64,92.1,377.71,282.73,600.63,260.64,304.78,586.83,389.63,693.29,412.68Z"/>
      <path class="cls-9" d="M2007.18,2806.37c-53.15,92.38-268.16,422.99-661.62,471.05-178.1,21.76-325.98-22.55-415.09-59.33,239.24-119.51,311.91-238.57,326.25-335.04,21.25-142.88-88.29-216.85-144.04-432.16,159.67,221.91,492.31,378.37,894.5,355.49ZM1235.24,1732.87c-16.89,12.5-32.03,26.67-45.59,42.21,21.6,121.26,74.42,314.21,210.76,507.96-.83-10.99-.64-21.85.6-32.51,10.94-93.53,108.27-218.69,231.35-215.66,61.25,1.5,109.89,34.28,142.74,65.82,25.13-25.61,52.38-51.6,81.92-77.55,50.69-44.55,100.95-82.76,149.05-115.47-278.15-241.35-601.62-300.01-770.83-174.8Z"/>
      <circle class="cls-7" cx="1553.47" cy="1417.01" r="223.09"/>
      <circle class="cls-6" cx="2152.51" cy="1630.18" r="223.09"/>
    </g>
    <path class="cls-8" d="M297.71,3585.33v-81.5h354.88v81.5h-127.63v340.16h-99.61v-340.16h-127.63ZM805.97,3931.44c-33.02,0-61.51-6.55-85.46-19.67-23.96-13.11-42.31-31.84-55.04-56.17-12.73-24.34-19.1-53.39-19.1-87.16s6.37-60.94,19.1-85.46c12.73-24.52,30.8-43.63,54.19-57.31,23.39-13.68,50.94-20.52,82.64-20.52,22.26,0,42.68,3.49,61.27,10.47,18.58,6.98,34.71,17.31,48.39,30.99,13.68,13.68,24.24,30.52,31.7,50.51,7.45,20,11.18,43.11,11.18,69.33v24.9h-273.37v-57.45h226.4l-46.13,13.58c0-14.72-2.22-27.35-6.65-37.92-4.43-10.56-10.99-18.68-19.67-24.34-8.68-5.66-19.43-8.49-32.26-8.49s-23.68,2.88-32.54,8.63c-8.87,5.76-15.61,13.77-20.23,24.05-4.62,10.28-6.93,22.31-6.93,36.08v41.32c0,16.23,2.69,29.76,8.07,40.61,5.38,10.85,12.88,18.96,22.5,24.34,9.62,5.38,20.84,8.07,33.68,8.07,8.87,0,16.93-1.22,24.2-3.68,7.26-2.45,13.49-6.13,18.68-11.04,5.19-4.9,9.1-10.85,11.74-17.83l88.01,14.43c-5.28,18.11-14.39,33.92-27.31,47.4-12.92,13.49-29.25,23.91-48.96,31.27-19.72,7.36-42.41,11.04-68.06,11.04ZM1100.86,3931.15c-20.19,0-38.16-3.44-53.91-10.33-15.75-6.88-28.07-17.26-36.93-31.13-8.87-13.87-13.3-31.17-13.3-51.93,0-17.55,3.06-32.35,9.2-44.43,6.13-12.07,14.67-21.88,25.61-29.43,10.94-7.54,23.49-13.3,37.64-17.26s29.24-6.6,45.28-7.92c17.92-1.51,32.35-3.16,43.3-4.95,10.94-1.79,18.96-4.48,24.05-8.07,5.09-3.58,7.64-8.58,7.64-15v-1.13c0-7.36-1.7-13.58-5.09-18.68s-8.3-8.96-14.72-11.6c-6.42-2.64-14.15-3.96-23.21-3.96s-17.12,1.32-24.2,3.96c-7.07,2.64-12.88,6.42-17.4,11.32-4.53,4.91-7.74,10.66-9.62,17.26l-89.43-11.6c4.15-18.11,12.31-34,24.48-47.68,12.17-13.68,28.11-24.34,47.83-31.98,19.71-7.64,42.78-11.46,69.19-11.46,19.62,0,37.97,2.31,55.04,6.93,17.07,4.62,32.02,11.42,44.85,20.38,12.83,8.96,22.83,20,30,33.11,7.17,13.11,10.75,28.16,10.75,45.14v214.79h-92.82v-44.43h-2.55c-5.66,10.94-12.88,20.09-21.65,27.45-8.77,7.36-18.96,12.97-30.56,16.84-11.6,3.86-24.76,5.8-39.48,5.8ZM1130.85,3865.78c11.13,0,21.18-2.26,30.14-6.79,8.96-4.53,16.08-10.75,21.37-18.68,5.28-7.92,7.92-17.07,7.92-27.45v-30.28c-2.83,1.51-6.37,2.93-10.61,4.24-4.24,1.32-8.91,2.5-14.01,3.54-5.09,1.04-10.19,1.98-15.28,2.83s-10,1.65-14.72,2.41c-9.62,1.32-17.83,3.59-24.62,6.79-6.79,3.21-11.98,7.36-15.56,12.45-3.59,5.09-5.38,11.23-5.38,18.39s1.79,12.88,5.38,17.69c3.58,4.81,8.39,8.49,14.43,11.04,6.04,2.55,13.02,3.82,20.94,3.82ZM1353.29,3925.49v-316.39h90.84l5.66,82.07h-6.79c4.9-20.56,12.21-37.17,21.93-49.81,9.71-12.64,21.03-21.88,33.96-27.73,12.92-5.85,26.55-8.77,40.89-8.77,22.64,0,40.89,7.26,54.76,21.79,13.87,14.53,24.57,38.3,32.12,71.32h-11.04c5.09-22.07,13.11-40,24.05-53.77,10.94-13.77,23.77-23.77,38.49-30,14.72-6.23,30-9.34,45.85-9.34,19.81,0,37.31,4.29,52.5,12.88,15.18,8.59,27.12,20.85,35.8,36.79,8.68,15.94,13.02,35.14,13.02,57.59v213.38h-98.48v-191.02c0-16.03-4.2-28.2-12.59-36.51-8.4-8.3-19.1-12.45-32.12-12.45-9.25,0-17.31,2.08-24.2,6.23-6.89,4.15-12.12,9.95-15.71,17.4-3.59,7.45-5.38,16.27-5.38,26.46v189.89h-94.8v-192.44c0-14.53-4.06-26.08-12.17-34.67-8.11-8.58-18.77-12.88-31.98-12.88-9.06,0-17.03,2.08-23.91,6.23-6.89,4.15-12.27,10.05-16.13,17.69-3.87,7.64-5.8,17.03-5.8,28.16v187.91h-98.77ZM2207.66,3931.15c-37.92,0-71.93-8.39-102.02-25.19-30.09-16.79-53.87-41.32-71.32-73.58-17.45-32.26-26.18-71.41-26.18-117.44s8.82-85.75,26.46-118.01c17.64-32.26,41.55-56.79,71.74-73.58,30.18-16.79,63.96-25.19,101.31-25.19,25.09,0,48.3,3.44,69.62,10.33,21.32,6.89,40.19,16.94,56.6,30.14,16.41,13.21,29.76,29.39,40.04,48.53,10.28,19.15,16.93,40.99,19.95,65.51h-101.03c-1.7-10.37-4.81-19.67-9.34-27.88-4.53-8.21-10.33-15.23-17.4-21.08-7.07-5.85-15.33-10.28-24.76-13.3-9.44-3.02-19.81-4.53-31.13-4.53-20.57,0-38.35,5.09-53.34,15.28-15,10.19-26.51,24.86-34.53,44.01-8.02,19.15-12.03,42.41-12.03,69.76s4.1,51.74,12.31,70.89c8.21,19.15,19.71,33.54,34.53,43.16,14.81,9.62,32.31,14.43,52.5,14.43,11.32,0,21.69-1.51,31.13-4.53,9.43-3.02,17.73-7.45,24.9-13.3,7.17-5.85,13.11-12.88,17.83-21.08,4.71-8.21,7.92-17.5,9.62-27.88h101.03c-1.89,18.87-7.26,37.4-16.13,55.61-8.87,18.21-21.18,34.81-36.93,49.81-15.75,15-34.76,26.93-57.02,35.8-22.26,8.87-47.73,13.3-76.41,13.3ZM2537.06,3931.15c-20.19,0-38.16-3.44-53.91-10.33-15.75-6.88-28.07-17.26-36.93-31.13-8.87-13.87-13.3-31.17-13.3-51.93,0-17.55,3.06-32.35,9.2-44.43,6.13-12.07,14.67-21.88,25.61-29.43,10.94-7.54,23.49-13.3,37.64-17.26s29.24-6.6,45.28-7.92c17.92-1.51,32.35-3.16,43.3-4.95,10.94-1.79,18.96-4.48,24.05-8.07,5.09-3.58,7.64-8.58,7.64-15v-1.13c0-7.36-1.7-13.58-5.09-18.68s-8.3-8.96-14.72-11.6c-6.42-2.64-14.15-3.96-23.21-3.96s-17.12,1.32-24.2,3.96c-7.07,2.64-12.88,6.42-17.4,11.32-4.53,4.91-7.74,10.66-9.62,17.26l-89.43-11.6c4.15-18.11,12.31-34,24.48-47.68,12.17-13.68,28.11-24.34,47.83-31.98,19.71-7.64,42.78-11.46,69.19-11.46,19.62,0,37.97,2.31,55.04,6.93,17.07,4.62,32.02,11.42,44.85,20.38,12.83,8.96,22.83,20,30,33.11,7.17,13.11,10.75,28.16,10.75,45.14v214.79h-92.82v-44.43h-2.55c-5.66,10.94-12.88,20.09-21.65,27.45-8.77,7.36-18.96,12.97-30.56,16.84-11.6,3.86-24.76,5.8-39.48,5.8ZM2567.06,3865.78c11.13,0,21.18-2.26,30.14-6.79,8.96-4.53,16.08-10.75,21.37-18.68,5.28-7.92,7.92-17.07,7.92-27.45v-30.28c-2.83,1.51-6.37,2.93-10.61,4.24-4.24,1.32-8.91,2.5-14.01,3.54-5.09,1.04-10.19,1.98-15.28,2.83s-10,1.65-14.72,2.41c-9.62,1.32-17.83,3.59-24.62,6.79-6.79,3.21-11.98,7.36-15.56,12.45-3.59,5.09-5.38,11.23-5.38,18.39s1.79,12.88,5.38,17.69c3.58,4.81,8.39,8.49,14.43,11.04,6.04,2.55,13.02,3.82,20.94,3.82ZM2789.5,3925.49v-316.39h95.94v57.73h3.4c5.66-20.94,15.04-36.46,28.16-46.55,13.11-10.09,28.34-15.14,45.7-15.14,4.53,0,9.29.28,14.29.85,5,.57,9.57,1.41,13.73,2.55v86.03c-4.72-1.7-10.9-2.97-18.54-3.82s-14.48-1.27-20.52-1.27c-12.08,0-22.92,2.69-32.54,8.07-9.62,5.38-17.17,12.78-22.64,22.22-5.47,9.44-8.21,20.47-8.21,33.11v172.63h-98.77ZM3164.18,3931.44c-33.02,0-61.51-6.55-85.46-19.67-23.96-13.11-42.31-31.84-55.04-56.17-12.73-24.34-19.1-53.39-19.1-87.16s6.37-60.94,19.1-85.46c12.73-24.52,30.8-43.63,54.19-57.31,23.39-13.68,50.94-20.52,82.64-20.52,22.26,0,42.68,3.49,61.27,10.47,18.58,6.98,34.71,17.31,48.39,30.99,13.68,13.68,24.24,30.52,31.7,50.51,7.45,20,11.18,43.11,11.18,69.33v24.9h-273.37v-57.45h226.4l-46.13,13.58c0-14.72-2.22-27.35-6.65-37.92-4.43-10.56-10.99-18.68-19.67-24.34-8.68-5.66-19.43-8.49-32.26-8.49s-23.68,2.88-32.54,8.63c-8.87,5.76-15.61,13.77-20.23,24.05-4.62,10.28-6.93,22.31-6.93,36.08v41.32c0,16.23,2.69,29.76,8.07,40.61,5.38,10.85,12.88,18.96,22.5,24.34,9.62,5.38,20.84,8.07,33.68,8.07,8.87,0,16.93-1.22,24.2-3.68,7.26-2.45,13.49-6.13,18.68-11.04,5.19-4.9,9.1-10.85,11.74-17.83l88.01,14.43c-5.28,18.11-14.39,33.92-27.31,47.4-12.92,13.49-29.25,23.91-48.96,31.27-19.72,7.36-42.41,11.04-68.06,11.04Z"/>
    <path class="cls-2" d="M471.95,4170.46c-11.91,0-22.26-1.89-31.03-5.67-8.77-3.78-15.64-9.18-20.6-16.21-4.96-7.02-7.69-15.39-8.19-25.09h24.5c.5,5.78,2.37,10.56,5.62,14.34,3.25,3.78,7.47,6.6,12.68,8.45,5.21,1.86,10.84,2.78,16.91,2.78,6.78,0,12.79-1.05,18.03-3.16,5.24-2.1,9.4-5.1,12.47-8.99,3.07-3.89,4.6-8.4,4.6-13.54,0-4.64-1.34-8.43-4.01-11.4-2.68-2.96-6.28-5.42-10.81-7.38-4.53-1.96-9.68-3.69-15.46-5.19l-18.62-5.14c-13.05-3.49-23.24-8.67-30.55-15.52-7.31-6.85-10.97-15.73-10.97-26.64,0-9.2,2.48-17.24,7.44-24.13,4.96-6.88,11.7-12.23,20.22-16.05,8.52-3.82,18.14-5.73,28.84-5.73s20.53,1.91,28.84,5.73c8.31,3.82,14.84,9.04,19.58,15.67,4.74,6.63,7.22,14.2,7.44,22.68h-23.75c-.79-7.28-4.16-12.91-10.11-16.91-5.96-3.99-13.47-5.99-22.52-5.99-6.42,0-12,1-16.75,3-4.74,2-8.42,4.76-11.02,8.29-2.6,3.53-3.91,7.54-3.91,12.04,0,5.07,1.55,9.15,4.65,12.25,3.1,3.1,6.88,5.56,11.34,7.38,4.46,1.82,8.72,3.26,12.79,4.33l15.52,4.07c5.06,1.28,10.29,3.01,15.68,5.19,5.39,2.18,10.36,5,14.93,8.45,4.56,3.46,8.26,7.74,11.07,12.84,2.82,5.1,4.23,11.25,4.23,18.46,0,8.99-2.32,17.01-6.96,24.08-4.64,7.06-11.36,12.61-20.17,16.64-8.81,4.03-19.46,6.05-31.94,6.05ZM598.96,4169.28c-8.13,0-15.27-1.71-21.4-5.14-6.14-3.42-10.9-8.49-14.28-15.19-3.39-6.7-5.08-14.98-5.08-24.82v-75.97h23.54v73.08c0,8.63,2.26,15.37,6.79,20.22,4.53,4.85,10.68,7.28,18.46,7.28,5.35,0,10.11-1.16,14.28-3.48,4.17-2.32,7.47-5.71,9.9-10.17,2.42-4.46,3.64-9.83,3.64-16.1v-70.83h23.54v119.63h-22.47l-.11-29.32h2.25c-3.5,10.84-8.6,18.69-15.3,23.54-6.71,4.85-14.62,7.28-23.75,7.28ZM690.02,4212.51v-164.35h22.9v19.47h1.93c1.43-2.5,3.41-5.39,5.94-8.67,2.53-3.28,6.06-6.15,10.59-8.61,4.53-2.46,10.54-3.69,18.03-3.69,9.56,0,18.1,2.43,25.63,7.28,7.53,4.85,13.46,11.88,17.82,21.08,4.35,9.2,6.53,20.29,6.53,33.28s-2.14,23.88-6.42,33.12c-4.28,9.24-10.18,16.34-17.71,21.29-7.53,4.96-16.14,7.44-25.84,7.44-7.21,0-13.11-1.23-17.71-3.69-4.6-2.46-8.2-5.33-10.81-8.61-2.6-3.28-4.62-6.21-6.05-8.77h-1.28v63.45h-23.54ZM744.16,4150.13c6.85,0,12.59-1.85,17.23-5.56,4.64-3.71,8.11-8.74,10.43-15.09,2.32-6.35,3.48-13.48,3.48-21.4s-1.16-14.89-3.48-21.13c-2.32-6.24-5.78-11.18-10.38-14.82s-10.36-5.46-17.28-5.46-12.38,1.73-17.01,5.19c-4.64,3.46-8.13,8.28-10.49,14.44-2.35,6.17-3.53,13.43-3.53,21.78s1.19,15.57,3.58,21.88c2.39,6.31,5.9,11.25,10.54,14.82,4.64,3.57,10.27,5.35,16.91,5.35ZM825.48,4212.51v-164.35h22.9v19.47h1.93c1.43-2.5,3.41-5.39,5.94-8.67,2.53-3.28,6.06-6.15,10.59-8.61,4.53-2.46,10.54-3.69,18.03-3.69,9.56,0,18.1,2.43,25.63,7.28,7.53,4.85,13.46,11.88,17.82,21.08,4.35,9.2,6.53,20.29,6.53,33.28s-2.14,23.88-6.42,33.12c-4.28,9.24-10.18,16.34-17.71,21.29-7.53,4.96-16.14,7.44-25.84,7.44-7.21,0-13.11-1.23-17.71-3.69-4.6-2.46-8.2-5.33-10.81-8.61-2.6-3.28-4.62-6.21-6.05-8.77h-1.28v63.45h-23.54ZM879.62,4150.13c6.85,0,12.59-1.85,17.23-5.56,4.64-3.71,8.11-8.74,10.43-15.09,2.32-6.35,3.48-13.48,3.48-21.4s-1.16-14.89-3.48-21.13c-2.32-6.24-5.78-11.18-10.38-14.82s-10.36-5.46-17.28-5.46-12.38,1.73-17.01,5.19c-4.64,3.46-8.13,8.28-10.49,14.44-2.35,6.17-3.53,13.43-3.53,21.78s1.19,15.57,3.58,21.88c2.39,6.31,5.9,11.25,10.54,14.82,4.64,3.57,10.27,5.35,16.91,5.35ZM1011.23,4170.25c-11.2,0-20.99-2.57-29.37-7.7-8.38-5.14-14.89-12.34-19.53-21.61-4.64-9.27-6.96-20.04-6.96-32.31s2.32-23.27,6.96-32.58c4.64-9.31,11.15-16.53,19.53-21.67,8.38-5.14,18.17-7.7,29.37-7.7s21.1,2.57,29.48,7.7c8.38,5.14,14.89,12.36,19.53,21.67,4.64,9.31,6.96,20.17,6.96,32.58s-2.32,23.04-6.96,32.31c-4.64,9.27-11.15,16.48-19.53,21.61-8.38,5.14-18.21,7.7-29.48,7.7ZM1011.23,4150.34c7.28,0,13.29-1.91,18.03-5.72,4.74-3.82,8.27-8.88,10.59-15.19,2.32-6.31,3.48-13.25,3.48-20.81s-1.16-14.64-3.48-21.03c-2.32-6.38-5.85-11.48-10.59-15.3-4.74-3.82-10.75-5.73-18.03-5.73s-13.16,1.91-17.87,5.73c-4.71,3.82-8.22,8.9-10.54,15.25-2.32,6.35-3.48,13.38-3.48,21.08s1.16,14.5,3.48,20.81c2.32,6.31,5.83,11.38,10.54,15.19,4.71,3.82,10.66,5.72,17.87,5.72ZM1093.3,4167.78v-119.63h22.79v19.26h1.28c2.21-6.56,6.06-11.7,11.56-15.41,5.49-3.71,11.73-5.56,18.73-5.56,1.5,0,3.21.05,5.14.16,1.93.11,3.53.27,4.82.48v22.47c-.86-.28-2.5-.57-4.92-.86-2.43-.28-4.89-.43-7.38-.43-5.42,0-10.31,1.14-14.66,3.42-4.35,2.28-7.74,5.44-10.17,9.47-2.43,4.03-3.64,8.69-3.64,13.96v72.65h-23.54ZM1232.94,4048.16v19.15h-64.84v-19.15h64.84ZM1185.54,4019.7h23.54v115.77c0,4.78,1.02,8.29,3.05,10.54,2.03,2.25,5.37,3.37,10,3.37,1.21,0,2.82-.14,4.82-.43,2-.28,3.71-.57,5.14-.86l4.17,18.83c-2.5.86-5.17,1.48-8.03,1.87-2.85.39-5.67.59-8.45.59-10.84,0-19.26-2.8-25.25-8.4-5.99-5.6-8.99-13.46-8.99-23.59v-117.7ZM1361.02,4170.03c-10.7,0-19.92-1.96-27.66-5.89-7.74-3.92-13.7-9.2-17.87-15.84-4.17-6.63-6.26-14.05-6.26-22.26,0-6.85,1.37-12.77,4.12-17.76,2.75-4.99,6.56-9.61,11.45-13.86,4.89-4.24,10.43-8.61,16.64-13.11l25.89-18.4c2-1.43,4.05-3.1,6.15-5.03,2.1-1.93,3.87-4.17,5.3-6.74,1.43-2.57,2.14-5.49,2.14-8.77,0-4.56-1.55-8.36-4.65-11.39-3.1-3.03-7.4-4.55-12.89-4.55-3.71,0-6.97.75-9.79,2.25-2.82,1.5-4.99,3.57-6.53,6.21-1.53,2.64-2.3,5.74-2.3,9.31,0,3.85.89,7.56,2.68,11.13,1.78,3.57,4.23,7.29,7.33,11.18,3.1,3.89,6.65,8.22,10.65,13l74.15,88.28h-26.75l-61.2-71.8c-5.28-6.28-10.13-12.09-14.55-17.44-4.42-5.35-7.94-10.79-10.54-16.32-2.6-5.53-3.91-11.54-3.91-18.03,0-7.28,1.66-13.73,4.98-19.37,3.32-5.63,8.01-10.06,14.07-13.27,6.06-3.21,13.16-4.82,21.29-4.82s15.25,1.59,21.13,4.76c5.89,3.17,10.43,7.44,13.64,12.79,3.21,5.35,4.82,11.31,4.82,17.87,0,4.85-.89,9.38-2.68,13.59-1.78,4.21-4.26,8.1-7.44,11.66-3.17,3.57-6.87,6.92-11.07,10.06l-32.1,23.54c-5.85,4.28-10.04,8.35-12.57,12.2-2.53,3.85-3.8,8.13-3.8,12.84s1.16,8.99,3.48,12.63c2.32,3.64,5.55,6.46,9.68,8.45,4.14,2,8.92,3,14.34,3,6.13,0,12.09-1.28,17.87-3.85s10.97-6.26,15.57-11.07c4.6-4.82,8.24-10.61,10.91-17.39,2.68-6.78,4.01-14.34,4.01-22.68h21.29c0,10.27-1.16,18.96-3.48,26.05-2.32,7.1-5.14,12.89-8.45,17.39s-6.44,8.03-9.36,10.59l-5.35,4.92c-5.42,5.35-11.98,9.35-19.69,11.98s-15.27,3.96-22.68,3.96ZM1506,4167.78l56.71-159.43h29.96l57.78,159.43h-26.43l-31.03-88.7c-2.43-7.2-5.08-15.69-7.97-25.47-2.89-9.77-6.22-21.51-10-35.2h4.92c-3.64,13.84-6.9,25.7-9.79,35.58-2.89,9.88-5.44,18.24-7.65,25.09l-30.07,88.7h-26.43ZM1536.71,4125.73v-20.33h82.93v20.33h-82.93ZM1720.33,4170.25c-11.27,0-21.08-2.57-29.43-7.7-8.35-5.14-14.84-12.34-19.47-21.61-4.64-9.27-6.96-20.04-6.96-32.31s2.32-23.27,6.96-32.58c4.64-9.31,11.13-16.53,19.47-21.67,8.35-5.14,18.15-7.7,29.43-7.7,6.21,0,12.02.8,17.44,2.41,5.42,1.61,10.33,3.93,14.71,6.96,4.39,3.03,8.1,6.74,11.13,11.13,3.03,4.39,5.3,9.33,6.79,14.82l-22.36,5.35c-.79-3.07-2-5.87-3.64-8.4-1.64-2.53-3.62-4.73-5.94-6.58-2.32-1.85-4.99-3.28-8.03-4.28-3.03-1-6.37-1.5-10-1.5-7.21,0-13.18,1.91-17.92,5.73-4.74,3.82-8.28,8.9-10.59,15.25-2.32,6.35-3.48,13.38-3.48,21.08s1.16,14.61,3.48,20.92c2.32,6.31,5.85,11.36,10.59,15.14,4.74,3.78,10.72,5.67,17.92,5.67,3.71,0,7.1-.52,10.17-1.55,3.07-1.03,5.81-2.49,8.24-4.39,2.42-1.89,4.46-4.17,6.1-6.85,1.64-2.68,2.82-5.62,3.53-8.83l22.26,5.35c-1.43,5.64-3.67,10.68-6.74,15.14-3.07,4.46-6.79,8.26-11.18,11.4-4.39,3.14-9.33,5.53-14.82,7.17-5.49,1.64-11.38,2.46-17.66,2.46ZM1846.8,4170.25c-11.27,0-21.08-2.57-29.43-7.7-8.35-5.14-14.84-12.34-19.47-21.61-4.64-9.27-6.96-20.04-6.96-32.31s2.32-23.27,6.96-32.58c4.64-9.31,11.13-16.53,19.47-21.67,8.35-5.14,18.15-7.7,29.43-7.7,6.21,0,12.02.8,17.44,2.41,5.42,1.61,10.33,3.93,14.71,6.96,4.39,3.03,8.1,6.74,11.13,11.13,3.03,4.39,5.3,9.33,6.8,14.82l-22.36,5.35c-.79-3.07-2-5.87-3.64-8.4-1.64-2.53-3.62-4.73-5.94-6.58-2.32-1.85-5-3.28-8.03-4.28-3.03-1-6.37-1.5-10-1.5-7.21,0-13.18,1.91-17.92,5.73-4.74,3.82-8.28,8.9-10.59,15.25-2.32,6.35-3.48,13.38-3.48,21.08s1.16,14.61,3.48,20.92c2.32,6.31,5.85,11.36,10.59,15.14,4.74,3.78,10.72,5.67,17.92,5.67,3.71,0,7.1-.52,10.17-1.55,3.07-1.03,5.81-2.49,8.24-4.39,2.42-1.89,4.46-4.17,6.1-6.85,1.64-2.68,2.82-5.62,3.53-8.83l22.26,5.35c-1.43,5.64-3.67,10.68-6.74,15.14-3.07,4.46-6.8,8.26-11.18,11.4-4.39,3.14-9.33,5.53-14.82,7.17-5.49,1.64-11.38,2.46-17.66,2.46ZM1973.28,4170.25c-11.2,0-20.99-2.57-29.37-7.7-8.38-5.14-14.89-12.34-19.53-21.61-4.64-9.27-6.96-20.04-6.96-32.31s2.32-23.27,6.96-32.58c4.64-9.31,11.14-16.53,19.53-21.67,8.38-5.14,18.17-7.7,29.37-7.7s21.1,2.57,29.48,7.7c8.38,5.14,14.89,12.36,19.53,21.67,4.64,9.31,6.96,20.17,6.96,32.58s-2.32,23.04-6.96,32.31c-4.64,9.27-11.15,16.48-19.53,21.61-8.38,5.14-18.21,7.7-29.48,7.7ZM1973.28,4150.34c7.28,0,13.28-1.91,18.03-5.72,4.74-3.82,8.27-8.88,10.59-15.19,2.32-6.31,3.48-13.25,3.48-20.81s-1.16-14.64-3.48-21.03c-2.32-6.38-5.85-11.48-10.59-15.3-4.74-3.82-10.75-5.73-18.03-5.73s-13.16,1.91-17.87,5.73c-4.71,3.82-8.22,8.9-10.54,15.25-2.32,6.35-3.48,13.38-3.48,21.08s1.16,14.5,3.48,20.81c2.32,6.31,5.83,11.38,10.54,15.19,4.71,3.82,10.66,5.72,17.87,5.72ZM2055.35,4167.78v-119.63h22.36l.64,27.71h-1.82c1.71-6.78,4.35-12.34,7.92-16.69,3.57-4.35,7.74-7.61,12.52-9.79,4.78-2.18,9.77-3.26,14.98-3.26,8.7,0,15.73,2.69,21.08,8.08,5.35,5.39,8.95,12.89,10.81,22.52h-3c1.57-6.56,4.28-12.13,8.13-16.69,3.85-4.56,8.51-8.03,13.96-10.38,5.46-2.35,11.29-3.53,17.49-3.53,7.06,0,13.46,1.53,19.21,4.6,5.74,3.07,10.29,7.63,13.64,13.7,3.35,6.06,5.03,13.63,5.03,22.68v80.68h-23.54v-78.32c0-7.99-2.23-13.77-6.69-17.33-4.46-3.57-9.72-5.35-15.78-5.35-4.92,0-9.17,1.03-12.73,3.1-3.57,2.07-6.31,4.94-8.24,8.61-1.93,3.67-2.89,7.9-2.89,12.68v76.61h-23.22v-79.82c0-6.42-2.05-11.56-6.15-15.41-4.1-3.85-9.33-5.78-15.68-5.78-4.35,0-8.4,1.02-12.14,3.05-3.75,2.03-6.74,5.03-8.99,8.99-2.25,3.96-3.37,8.83-3.37,14.61v74.37h-23.54ZM2249.98,4167.78v-119.63h22.36l.64,27.71h-1.82c1.71-6.78,4.35-12.34,7.92-16.69,3.57-4.35,7.74-7.61,12.52-9.79,4.78-2.18,9.77-3.26,14.98-3.26,8.7,0,15.73,2.69,21.08,8.08,5.35,5.39,8.95,12.89,10.81,22.52h-3c1.57-6.56,4.28-12.13,8.13-16.69,3.85-4.56,8.51-8.03,13.96-10.38,5.46-2.35,11.29-3.53,17.49-3.53,7.06,0,13.46,1.53,19.21,4.6,5.74,3.07,10.29,7.63,13.64,13.7,3.35,6.06,5.03,13.63,5.03,22.68v80.68h-23.54v-78.32c0-7.99-2.23-13.77-6.69-17.33-4.46-3.57-9.72-5.35-15.78-5.35-4.92,0-9.17,1.03-12.73,3.1-3.57,2.07-6.31,4.94-8.24,8.61-1.93,3.67-2.89,7.9-2.89,12.68v76.61h-23.22v-79.82c0-6.42-2.05-11.56-6.15-15.41-4.1-3.85-9.33-5.78-15.68-5.78-4.35,0-8.4,1.02-12.14,3.05-3.75,2.03-6.74,5.03-8.99,8.99-2.25,3.96-3.37,8.83-3.37,14.61v74.37h-23.54ZM2494.9,4170.25c-11.2,0-20.99-2.57-29.37-7.7-8.38-5.14-14.89-12.34-19.53-21.61-4.64-9.27-6.96-20.04-6.96-32.31s2.32-23.27,6.96-32.58c4.64-9.31,11.14-16.53,19.53-21.67,8.38-5.14,18.17-7.7,29.37-7.7s21.1,2.57,29.48,7.7c8.38,5.14,14.89,12.36,19.53,21.67,4.64,9.31,6.96,20.17,6.96,32.58s-2.32,23.04-6.96,32.31c-4.64,9.27-11.15,16.48-19.53,21.61-8.38,5.14-18.21,7.7-29.48,7.7ZM2494.9,4150.34c7.28,0,13.28-1.91,18.03-5.72,4.74-3.82,8.27-8.88,10.59-15.19,2.32-6.31,3.48-13.25,3.48-20.81s-1.16-14.64-3.48-21.03c-2.32-6.38-5.85-11.48-10.59-15.3-4.74-3.82-10.75-5.73-18.03-5.73s-13.16,1.91-17.87,5.73c-4.71,3.82-8.22,8.9-10.54,15.25-2.32,6.35-3.48,13.38-3.48,21.08s1.16,14.5,3.48,20.81c2.32,6.31,5.83,11.38,10.54,15.19,4.71,3.82,10.66,5.72,17.87,5.72ZM2621.48,4170.14c-9.7,0-18.33-2.48-25.89-7.44-7.56-4.96-13.48-12.05-17.76-21.29-4.28-9.24-6.42-20.28-6.42-33.12s2.18-24.08,6.53-33.28c4.35-9.2,10.31-16.23,17.87-21.08,7.56-4.85,16.12-7.28,25.68-7.28,7.42,0,13.39,1.23,17.92,3.69,4.53,2.46,8.08,5.33,10.65,8.61,2.57,3.28,4.53,6.17,5.89,8.67h1.28v-59.28h23.54v159.43h-22.9v-18.73h-1.93c-1.36,2.57-3.35,5.49-5.99,8.77-2.64,3.28-6.24,6.15-10.81,8.61-4.57,2.46-10.45,3.69-17.66,3.69ZM2626.62,4150.13c6.7,0,12.36-1.78,16.96-5.35,4.6-3.57,8.1-8.51,10.49-14.82,2.39-6.31,3.59-13.61,3.59-21.88s-1.18-15.6-3.53-21.78c-2.35-6.17-5.83-10.98-10.43-14.44-4.6-3.46-10.29-5.19-17.07-5.19s-12.68,1.82-17.28,5.46c-4.6,3.64-8.06,8.58-10.38,14.82-2.32,6.24-3.48,13.29-3.48,21.13s1.18,15.05,3.53,21.4c2.35,6.35,5.85,11.38,10.49,15.09,4.64,3.71,10.34,5.56,17.12,5.56ZM2745.93,4170.46c-7.56,0-14.41-1.41-20.54-4.23-6.14-2.82-10.99-6.94-14.55-12.36-3.57-5.42-5.35-12.05-5.35-19.9,0-6.78,1.3-12.34,3.91-16.69,2.6-4.35,6.13-7.81,10.59-10.38,4.46-2.57,9.42-4.49,14.87-5.78,5.46-1.28,11-2.25,16.64-2.89,7.06-.86,12.8-1.55,17.23-2.09,4.42-.53,7.69-1.42,9.79-2.67,2.1-1.25,3.16-3.26,3.16-6.05v-.64c0-4.49-.86-8.27-2.57-11.34-1.71-3.07-4.26-5.44-7.65-7.12-3.39-1.67-7.62-2.51-12.68-2.51s-9.68.8-13.43,2.41c-3.75,1.6-6.78,3.66-9.1,6.15-2.32,2.5-4.05,5.1-5.19,7.81l-22.15-5.78c2.71-7.13,6.6-12.88,11.66-17.23,5.06-4.35,10.88-7.53,17.44-9.52,6.56-2,13.34-3,20.33-3,4.85,0,9.99.57,15.41,1.71,5.42,1.14,10.52,3.21,15.3,6.21,4.78,3,8.67,7.21,11.66,12.63,3,5.42,4.49,12.48,4.49,21.19v79.39h-22.79v-16.37h-1.18c-1.57,3.07-3.89,6.06-6.96,8.99-3.07,2.93-6.94,5.33-11.61,7.22-4.67,1.89-10.26,2.84-16.75,2.84ZM2751.17,4151.52c6.42,0,11.91-1.25,16.48-3.75,4.56-2.5,8.06-5.81,10.49-9.95,2.42-4.14,3.64-8.52,3.64-13.16v-15.3c-.86.86-2.48,1.62-4.87,2.3-2.39.68-5.12,1.28-8.18,1.82-3.07.54-6.03.98-8.88,1.34-2.85.36-5.21.64-7.06.86-4.42.57-8.47,1.53-12.14,2.89-3.68,1.36-6.6,3.28-8.77,5.78-2.18,2.5-3.26,5.81-3.26,9.95,0,3.78.98,6.96,2.94,9.52,1.96,2.57,4.62,4.49,7.97,5.78,3.35,1.28,7.24,1.93,11.66,1.93ZM2888.02,4048.16v19.15h-64.84v-19.15h64.84ZM2840.62,4019.7h23.54v115.77c0,4.78,1.02,8.29,3.05,10.54,2.03,2.25,5.37,3.37,10,3.37,1.21,0,2.82-.14,4.82-.43,2-.28,3.71-.57,5.14-.86l4.17,18.83c-2.5.86-5.17,1.48-8.03,1.87-2.85.39-5.67.59-8.45.59-10.84,0-19.26-2.8-25.25-8.4-5.99-5.6-8.99-13.46-8.99-23.59v-117.7ZM2923.33,4029.86c-4.07,0-7.54-1.37-10.43-4.12-2.89-2.74-4.33-6.01-4.33-9.79s1.44-7.24,4.33-9.95c2.89-2.71,6.37-4.07,10.43-4.07s7.56,1.36,10.49,4.07c2.92,2.71,4.39,6.03,4.39,9.95s-1.46,7.13-4.39,9.84c-2.93,2.71-6.42,4.07-10.49,4.07ZM2911.46,4167.78v-119.63h23.54v119.63h-23.54ZM3016.96,4170.25c-11.2,0-20.99-2.57-29.37-7.7-8.38-5.14-14.89-12.34-19.53-21.61-4.64-9.27-6.96-20.04-6.96-32.31s2.32-23.27,6.96-32.58c4.64-9.31,11.14-16.53,19.53-21.67,8.38-5.14,18.17-7.7,29.37-7.7s21.1,2.57,29.48,7.7c8.38,5.14,14.89,12.36,19.53,21.67,4.64,9.31,6.96,20.17,6.96,32.58s-2.32,23.04-6.96,32.31c-4.64,9.27-11.15,16.48-19.53,21.61-8.38,5.14-18.21,7.7-29.48,7.7ZM3016.96,4150.34c7.28,0,13.28-1.91,18.03-5.72,4.74-3.82,8.27-8.88,10.59-15.19,2.32-6.31,3.48-13.25,3.48-20.81s-1.16-14.64-3.48-21.03c-2.32-6.38-5.85-11.48-10.59-15.3-4.74-3.82-10.75-5.73-18.03-5.73s-13.16,1.91-17.87,5.73c-4.71,3.82-8.22,8.9-10.54,15.25-2.32,6.35-3.48,13.38-3.48,21.08s1.16,14.5,3.48,20.81c2.32,6.31,5.83,11.38,10.54,15.19,4.71,3.82,10.66,5.72,17.87,5.72ZM3122.57,4096.95v70.83h-23.54v-119.63h22.47l.21,29.32h-2.46c3.49-10.7,8.56-18.51,15.19-23.43s14.66-7.38,24.08-7.38c8.13,0,15.23,1.71,21.29,5.14,6.06,3.42,10.81,8.47,14.23,15.14,3.42,6.67,5.14,14.96,5.14,24.88v75.97h-23.54v-73.08c0-8.63-2.25-15.37-6.74-20.22-4.49-4.85-10.66-7.28-18.51-7.28-5.28,0-10.02,1.16-14.23,3.48-4.21,2.32-7.53,5.69-9.95,10.11-2.43,4.42-3.64,9.81-3.64,16.16Z"/>
  </g>
</svg>